<svg width="24" height="22" viewBox="0 0 24 22" xmlns="http://www.w3.org/2000/svg" xmlns:xlink="http://www.w3.org/1999/xlink">
    <defs>
        <path id="xhg29wpnza" d="M0 0h22.198v22H0z"/>
        <path id="5gb0649m8c" d="M0 0h1.802v3.698H0z"/>
        <path id="dyaotw44ke" d="M0 0h1.802v3.698H0z"/>
    </defs>
    <g fill="none" fill-rule="evenodd">
        <g transform="translate(1.802)">
            <mask id="uda6g19dgb" fill="#fff">
                <use xlink:href="#xhg29wpnza"/>
            </mask>
            <path d="M21.409 0H.789A.786.786 0 0 0 0 .782v20.436c0 .431.353.782.789.782h20.62c.436 0 .79-.35.79-.782V.782a.786.786 0 0 0-.79-.782" fill="#4F5872" mask="url(#uda6g19dgb)"/>
        </g>
        <path d="M20.581 2.997H5.221a.393.393 0 0 0-.395.391v15.224c0 .216.176.39.395.39h15.36a.393.393 0 0 0 .394-.39V3.388a.393.393 0 0 0-.394-.39" fill="#D5D5EA"/>
        <g transform="translate(0 5.07)">
            <mask id="b3nqxz1upd" fill="#fff">
                <use xlink:href="#5gb0649m8c"/>
            </mask>
            <path d="M.197 0h1.605v3.698H.197A.197.197 0 0 1 0 3.503V.196C0 .087.089 0 .197 0" fill="#8A8A96" mask="url(#b3nqxz1upd)"/>
        </g>
        <g transform="translate(0 13.232)">
            <mask id="e5nnu5vbxf" fill="#fff">
                <use xlink:href="#dyaotw44ke"/>
            </mask>
            <path d="M.197 0h1.605v3.698H.197A.197.197 0 0 1 0 3.503V.196C0 .087.089 0 .197 0" fill="#8A8A96" mask="url(#e5nnu5vbxf)"/>
        </g>
        <path d="M16.145 7.785A4.594 4.594 0 0 0 12.9 6.453a4.594 4.594 0 0 0-3.244 1.332A4.512 4.512 0 0 0 8.313 11c0 1.255.514 2.392 1.344 3.215a4.594 4.594 0 0 0 3.244 1.332 4.594 4.594 0 0 0 3.244-1.332A4.512 4.512 0 0 0 17.488 11a4.512 4.512 0 0 0-1.343-3.215" fill="#FFF"/>
        <path d="M8.708 15.84a.692.692 0 0 1-.489-.2.68.68 0 0 1 0-.968l8.386-8.312a.696.696 0 0 1 .977 0 .68.68 0 0 1 0 .968L9.196 15.64a.692.692 0 0 1-.488.2" fill="#4F5872"/>
        <path d="M17.094 15.84a.692.692 0 0 1-.489-.2L8.22 7.328a.68.68 0 0 1 0-.968.696.696 0 0 1 .976 0l8.386 8.312c.27.267.27.7 0 .968a.692.692 0 0 1-.488.2" fill="#4F5872"/>
        <path d="M14.33 9.583a2.025 2.025 0 0 0-1.43-.588c-.558 0-1.064.225-1.43.588a1.991 1.991 0 0 0 0 2.835c.366.362.872.586 1.43.586.56 0 1.065-.224 1.43-.586a1.989 1.989 0 0 0 0-2.835" fill="#D5D5EA"/>
        <path d="M19.462 12.842a.393.393 0 0 1-.395-.391V9.549c0-.216.176-.39.395-.39.218 0 .394.174.394.39v2.902c0 .216-.176.39-.394.39" fill="#F5B750"/>
    </g>
</svg>
