<svg width="29" height="32" viewBox="0 0 29 32" xmlns="http://www.w3.org/2000/svg" xmlns:xlink="http://www.w3.org/1999/xlink">
    <defs>
        <path d="m27.367 0 .128.008c.21.027.407.12.561.268l.087.094.073.102a1 1 0 0 1-.126 1.219l-.093.085L14.183 13 .37 1.776l-.094-.087a1 1 0 0 1-.268-.561L0 1 .007.883A1 1 0 0 1 .883.007L1 0h26.367z" id="hc0wg3op0a"/>
        <path d="M15 0a1 1 0 0 1 .993.883L16 1v19H.607c-.31 0-.565-.377-.602-.866L0 19.01V1C0 .485.416.06.95.006L1.068 0H15z" id="1zw950zysc"/>
        <path d="m6.674 0 .1.01c.236.04.433.206.517.436a.712.712 0 0 1-.05.595l-.058.086-6 7.586a.654.654 0 0 1-.624.243.672.672 0 0 1-.516-.437.71.71 0 0 1 .05-.594l.058-.086 6-7.586a.662.662 0 0 1 .424-.246l.1-.007z" id="hjjsslusre"/>
        <path d="M11 8c.531 0 1.039.218 1.414.606a2.1 2.1 0 0 1 .578 1.281l.008.182v.689c0 .74-.381 1.423-1 1.792a1.94 1.94 0 0 1-2 0 2.075 2.075 0 0 1-.993-1.622L9 10.758v-.689c0-.549.211-1.075.586-1.463A1.967 1.967 0 0 1 11 8zm-.333 1.472a.69.69 0 0 0-.326.493l-.008.104v.689c0 .247.127.475.334.598.206.123.46.123.666 0a.69.69 0 0 0 .326-.494l.008-.104v-.689a.693.693 0 0 0-.334-.597.647.647 0 0 0-.666 0z" id="ftlns89tdg"/>
        <path d="M18 13.45c.571.34.94.949.993 1.622l.007.169v.69c0 .739-.381 1.422-1 1.792a1.945 1.945 0 0 1-2 0 2.078 2.078 0 0 1-.993-1.623L15 15.931v-.69a2.08 2.08 0 0 1 1-1.791 1.94 1.94 0 0 1 2 0zm-1.333 1.194a.69.69 0 0 0-.326.493l-.008.104v.69c0 .246.127.474.334.597.206.123.46.123.666 0a.69.69 0 0 0 .326-.493l.008-.104v-.69a.693.693 0 0 0-.334-.597.647.647 0 0 0-.666 0z" id="oi66p0duli"/>
    </defs>
    <g fill="none" fill-rule="evenodd">
        <g transform="translate(0 19)">
            <mask id="ae19t43l7b" fill="#fff">
                <use xlink:href="#hc0wg3op0a"/>
            </mask>
            <path fill="#D5D5EA" mask="url(#ae19t43l7b)" d="M-6-6h40.491v25H-6z"/>
        </g>
        <g transform="translate(6)">
            <mask id="98u7iwzcxd" fill="#fff">
                <use xlink:href="#1zw950zysc"/>
            </mask>
            <path fill="#D5D5EA" mask="url(#98u7iwzcxd)" d="M-5-5h26v30H-5z"/>
        </g>
        <g transform="translate(10.332 8.518)">
            <mask id="x58ccjptzf" fill="#fff">
                <use xlink:href="#hjjsslusre"/>
            </mask>
            <path fill="#424A60" mask="url(#x58ccjptzf)" d="M-5-5h17.333v18.966H-5z"/>
        </g>
        <mask id="4ioyyk927h" fill="#fff">
            <use xlink:href="#ftlns89tdg"/>
        </mask>
        <path fill="#424A60" mask="url(#4ioyyk927h)" d="M4 3h14v14.828H4z"/>
        <mask id="m73godf2cj" fill="#fff">
            <use xlink:href="#oi66p0duli"/>
        </mask>
        <path fill="#424A60" mask="url(#m73godf2cj)" d="M10 8.172h14V23H10z"/>
    </g>
</svg>
