<svg width="24" height="24" viewBox="0 0 24 24" xmlns="http://www.w3.org/2000/svg" xmlns:xlink="http://www.w3.org/1999/xlink">
    <defs>
        <path id="c0txw7g7ua" d="M0 0h24v4.542H0z"/>
        <path id="1nilp61amc" d="M0 0h24v9.989H0z"/>
    </defs>
    <g fill="none" fill-rule="evenodd">
        <path fill="#8A8A97" d="M2.44 20.43h3.933V9.447H2.44zM10.034 20.43h3.932V9.447h-3.932zM17.627 20.43h3.932V9.447h-3.932z"/>
        <g transform="translate(0 19.458)">
            <mask id="v2l2sc6wib" fill="#fff">
                <use xlink:href="#c0txw7g7ua"/>
            </mask>
            <path d="M21.288 0H2.712A2.712 2.712 0 0 0 0 2.712v1.153c0 .374.304.678.678.678h22.644A.678.678 0 0 0 24 3.865V2.712A2.712 2.712 0 0 0 21.288 0" fill="#D5D5EC" mask="url(#v2l2sc6wib)"/>
        </g>
        <g>
            <mask id="3b6grbe08d" fill="#fff">
                <use xlink:href="#1nilp61amc"/>
            </mask>
            <path d="M11.651.096.33 6.876A.677.677 0 0 0 0 7.459V9.31c0 .375.303.678.677.678h22.645A.678.678 0 0 0 24 9.31V7.458a.678.678 0 0 0-.33-.581L12.348.097a.678.678 0 0 0-.697 0" fill="#D5D5EC" mask="url(#3b6grbe08d)"/>
        </g>
        <path d="M15.254 5.469a3.254 3.254 0 1 1-6.509 0 3.254 3.254 0 0 1 6.51 0" fill="#414A62"/>
        <path d="M13.217 4.885a.217.217 0 0 1-.217.217h-.572c-.094.456-.456.75-.884.855l1.206 1.095c.05.04.083.111.083.195a.256.256 0 0 1-.255.26c-.094 0-.162-.05-.217-.094L10.94 6.08c-.084-.067-.128-.145-.128-.228 0-.156.116-.24.283-.245.395-.011.69-.172.778-.505H11a.217.217 0 0 1-.217-.217c0-.117.094-.223.217-.223h.878c-.084-.338-.372-.522-.767-.522H11a.217.217 0 0 1-.217-.216c0-.117.094-.223.217-.223h2c.123 0 .217.106.217.223A.217.217 0 0 1 13 4.14h-.894c.172.14.277.317.322.522h.578c.117 0 .21.106.21.223" fill="#FFF"/>
    </g>
</svg>
