<svg width="203" height="93" viewBox="0 0 203 93" xmlns="http://www.w3.org/2000/svg" xmlns:xlink="http://www.w3.org/1999/xlink">
    <defs>
        <path id="64lfhp91ma" d="M0 0h115.6v69.75H0z"/>
        <path id="zjc4ac1shc" d="M0 0h55.8v6.386H0z"/>
        <path id="t6y0xn3xbe" d="M0 0h55.8v6.386H0z"/>
    </defs>
    <g fill="none" fill-rule="evenodd">
        <g transform="translate(67)">
            <ellipse fill="#FF9B00" fill-rule="nonzero" cx="39.667" cy="43.875" rx="3.4" ry="3.375"/>
            <ellipse fill="#FF9B00" fill-rule="nonzero" cx="70.267" cy="33.75" rx="13.6" ry="13.5"/>
            <ellipse fill="#FF9B00" fill-rule="nonzero" cx="98.6" cy="23.625" rx="3.4" ry="3.375"/>
            <g transform="translate(20.4)" fill-rule="nonzero">
                <path fill="#D5D5EA" d="M0 0h115.6v69.75H0z"/>
                <path d="M90.062 9H23.277c-1.185 6.247-5.92 11.109-11.944 12.265v24.97c6.024 1.156 10.759 6.018 11.944 12.265h66.785c1.18-6.247 5.914-11.11 11.938-12.265v-24.97C95.976 20.111 91.242 15.247 90.062 9z" fill="#F2F2FD"/>
                <ellipse fill="#FFB751" cx="61.2" cy="33.75" rx="13.6" ry="13.5"/>
                <ellipse fill="#FFB751" cx="89.533" cy="34.875" rx="3.4" ry="3.375"/>
                <ellipse fill="#FFB751" cx="28.333" cy="34.875" rx="3.4" ry="3.375"/>
            </g>
            <g transform="translate(20.4)">
                <mask id="xqj3natu2b" fill="#fff">
                    <use xlink:href="#64lfhp91ma"/>
                </mask>
                <path fill="#D5D5EA" fill-rule="nonzero" style="mix-blend-mode:multiply" mask="url(#xqj3natu2b)" d="M-13.6 13.5H102v69.75H-13.6z"/>
            </g>
            <g transform="translate(0 20.25)" fill-rule="nonzero">
                <path fill="#D5D5EA" d="M0 0h115.6v69.75H0z"/>
                <path d="M89.728 9H22.944C21.758 15.247 17.024 20.109 11 21.265v24.97c6.024 1.156 10.758 6.018 11.944 12.265h66.784c1.18-6.247 5.914-11.11 11.939-12.265v-24.97C95.642 20.111 90.909 15.247 89.728 9z" fill="#F2F2FD"/>
                <ellipse fill="#FFB751" cx="56.6" cy="33.5" rx="13.6" ry="13.5"/>
                <g transform="translate(22 32)" fill="#FFB751">
                    <ellipse cx="64.6" cy="3.375" rx="3.4" ry="3.375"/>
                    <ellipse cx="3.4" cy="3.375" rx="3.4" ry="3.375"/>
                </g>
            </g>
        </g>
        <path d="M58.403 48.574c-1.581-.9-1.542-3.186.045-4.074 5.796-3.243 9.648-8.765 10.036-15.012l1.434-23.102H23.26l1.435 23.102c.385 6.2 4.18 11.685 9.902 14.938 1.581.899 1.543 3.186-.045 4.074-5.796 3.243-9.647 8.765-10.035 15.013l-1.435 23.1H69.74l-1.435-23.1c-.385-6.2-4.18-11.686-9.902-14.939" fill="#D5D5EA"/>
        <path d="m29.748 20.533 1.846 11.035c.9 5.381 4.691 9.823 9.853 11.546l.787.263a14.65 14.65 0 0 0 9.647-.13 14.73 14.73 0 0 0 9.481-11.416l1.89-11.298H29.748z" fill="#FFB751"/>
        <g transform="translate(18.6)">
            <mask id="hjcgcdgqfd" fill="#fff">
                <use xlink:href="#zjc4ac1shc"/>
            </mask>
            <path d="M52.617 6.386H3.183A3.188 3.188 0 0 1 0 3.193 3.188 3.188 0 0 1 3.183 0h49.434A3.188 3.188 0 0 1 55.8 3.193a3.188 3.188 0 0 1-3.183 3.193" fill="#424A60" mask="url(#hjcgcdgqfd)"/>
        </g>
        <g transform="translate(18.6 86.614)">
            <mask id="nqzrhxihzf" fill="#fff">
                <use xlink:href="#t6y0xn3xbe"/>
            </mask>
            <path d="M3.183 0h49.434A3.188 3.188 0 0 1 55.8 3.193a3.188 3.188 0 0 1-3.183 3.194H3.183A3.188 3.188 0 0 1 0 3.193 3.188 3.188 0 0 1 3.183 0" fill="#424A60" mask="url(#nqzrhxihzf)"/>
        </g>
        <path d="M40.7 61.604a15.928 15.928 0 0 1 10.49-.14l.782.26A16.005 16.005 0 0 1 62.277 72.48l2.33 8.08H28.393l2.406-8.341a16.006 16.006 0 0 1 9.9-10.614M46.5 51.779a1.167 1.167 0 0 1-1.165-1.17v-3.027c0-.645.521-1.169 1.165-1.169s1.166.524 1.166 1.17v3.027c0 .646-.522 1.169-1.166 1.169M46.5 58.486a1.167 1.167 0 0 1-1.165-1.169V54.29c0-.646.521-1.17 1.165-1.17s1.166.524 1.166 1.17v3.027c0 .646-.522 1.17-1.166 1.17" fill="#FFB751"/>
        <path d="M39.803 48.574c-1.581-.9-1.542-3.186.045-4.074 5.796-3.243 9.648-8.765 10.036-15.012l1.434-23.102h-8.467l-1.435 23.102c-.388 6.247-4.239 11.769-10.035 15.012-1.587.888-1.626 3.175-.045 4.074 5.722 3.253 9.517 8.739 9.902 14.939l1.435 23.1h8.467l-1.434-23.1c-.386-6.2-4.181-11.686-9.903-14.939" fill="#D5D5EA" style="mix-blend-mode:multiply" transform="translate(18.6)"/>
    </g>
</svg>
