<svg width="23" height="24" viewBox="0 0 23 24" xmlns="http://www.w3.org/2000/svg" xmlns:xlink="http://www.w3.org/1999/xlink">
    <defs>
        <path id="qdibawdi1a" d="M0 0h23v21.158H0z"/>
        <path id="1sznle1k4c" d="M0 24h23V0H0z"/>
    </defs>
    <g fill="none" fill-rule="evenodd">
        <g transform="translate(0 2.842)">
            <mask id="aysvwxkapb" fill="#fff">
                <use xlink:href="#qdibawdi1a"/>
            </mask>
            <path d="M21.814 0H18.88v1.874c0 .9-.718 1.633-1.6 1.633-.883 0-1.6-.733-1.6-1.633V0H7.32v1.874c0 .9-.717 1.633-1.6 1.633-.882 0-1.6-.733-1.6-1.633V0H1.185C.531 0 0 .541 0 1.209v18.74c0 .669.53 1.209 1.185 1.209h20.63c.654 0 1.185-.54 1.185-1.209V1.209C23 .54 22.469 0 21.814 0" fill="#4F5872" mask="url(#aysvwxkapb)"/>
        </g>
        <path d="M17.28 0c-.491 0-.89.406-.89.907v3.809c0 .5.399.907.89.907.49 0 .889-.407.889-.907V.907a.898.898 0 0 0-.89-.907M5.72 0c-.49 0-.889.406-.889.907v3.809c0 .5.399.907.89.907.49 0 .889-.407.889-.907V.907A.898.898 0 0 0 5.72 0" fill="#4F5872"/>
        <mask id="2au1y1lcqd" fill="#fff">
            <use xlink:href="#1sznle1k4c"/>
        </mask>
        <path fill="#FFF" mask="url(#2au1y1lcqd)" d="M1.364 22.428h20.154V8.645H1.364z"/>
        <path d="M16.48 18.015h2.904a.06.06 0 0 1 .06.06v2.54a.06.06 0 0 1-.06.06H16.48a.06.06 0 0 1-.059-.06v-2.54a.06.06 0 0 1 .06-.06" fill="#47A0DB" mask="url(#2au1y1lcqd)"/>
        <path d="M12.152 18.015h2.905a.06.06 0 0 1 .06.06v2.54a.06.06 0 0 1-.06.06h-2.905a.06.06 0 0 1-.06-.06v-2.54a.06.06 0 0 1 .06-.06M7.825 18.015h2.904a.06.06 0 0 1 .06.06v2.54a.06.06 0 0 1-.06.06H7.825a.06.06 0 0 1-.06-.06v-2.54a.06.06 0 0 1 .06-.06M3.497 18.015h2.905a.06.06 0 0 1 .06.06v2.54a.06.06 0 0 1-.06.06H3.497a.06.06 0 0 1-.059-.06v-2.54a.06.06 0 0 1 .06-.06M16.48 14.207h2.904a.06.06 0 0 1 .06.06v2.54a.06.06 0 0 1-.06.06H16.48a.06.06 0 0 1-.059-.06v-2.54a.06.06 0 0 1 .06-.06M12.152 14.207h2.905a.06.06 0 0 1 .06.06v2.54a.06.06 0 0 1-.06.06h-2.905a.06.06 0 0 1-.06-.06v-2.54a.06.06 0 0 1 .06-.06M7.825 14.207h2.904a.06.06 0 0 1 .06.06v2.54a.06.06 0 0 1-.06.06H7.825a.06.06 0 0 1-.06-.06v-2.54a.06.06 0 0 1 .06-.06M3.497 14.207h2.905a.06.06 0 0 1 .06.06v2.54a.06.06 0 0 1-.06.06H3.497a.06.06 0 0 1-.059-.06v-2.54a.06.06 0 0 1 .06-.06M16.48 10.398h2.904a.06.06 0 0 1 .06.06v2.54a.06.06 0 0 1-.06.06H16.48a.06.06 0 0 1-.059-.06v-2.54a.06.06 0 0 1 .06-.06M12.152 10.398h2.905a.06.06 0 0 1 .06.06v2.54a.06.06 0 0 1-.06.06h-2.905a.06.06 0 0 1-.06-.06v-2.54a.06.06 0 0 1 .06-.06" fill="#D5D5EA" mask="url(#2au1y1lcqd)"/>
    </g>
</svg>
