<svg width="36" height="35" viewBox="0 0 36 35" xmlns="http://www.w3.org/2000/svg">
    <g fill="none" fill-rule="evenodd">
        <path d="M13.558 11.59c.627 1.698-1.008 3.809-3.49 3.947-.732.041-1.423-.16-1.916-.556-.688-.554-.933-1.257-.89-1.949.102-1.335.785-3.68 1.147-4.85.103-.333.568-.514.866-.338 4.083 2.4 4.283 3.746 4.283 3.746" fill="#BABADC"/>
        <path d="M26.89 28.351c0 .123-.013.245-.047.361v2.512a.763.763 0 0 1-.754.776h-4.5a.763.763 0 0 1-.753-.776v-1.47H16.83v1.558c0 .382-.3.688-.667.688h-4.666a.68.68 0 0 1-.674-.688V29.7c-.407-.054-.801-.17-1.168-.347l-1.215-.579a3.955 3.955 0 0 1-1.322-1.014l-1.101-1.287a.99.99 0 0 0-.294-.23l-2.857-1.437A2.424 2.424 0 0 1 1.55 23l-.534-3.315c-.107-.695.3-1.362.961-1.56l.988-.299a4.04 4.04 0 0 0 1.669-.994l.988-.973c0-.034.247-.381 3.891-3.69 4.213-3.825 9.099-3.73 14.279-1.817 5.493 2.035 6.975 7.386 6.975 7.386 2.11 7.515-3.878 10.401-3.878 10.401v.211z" fill="#D5D5EA"/>
        <path fill="#E0E0E0" d="M5.629 15.86h-.006M16.83 29.754v-1.062M10.823 29.699v-2.43M20.836 29.754v-1.062M26.843 28.712v-1.545"/>
        <path d="M11.136 13.624c.627 1.698-1.008 3.809-3.49 3.947-.732.041-1.423-.16-1.915-.556-.688-.554-.934-1.257-.89-1.949.102-1.335.784-3.68 1.146-4.85.103-.333.568-.514.866-.338 4.083 2.4 4.283 3.746 4.283 3.746" fill="#8A8A96"/>
        <path d="M13.02 13.315c.797-.621 1.725-1.04 2.682-1.341.96-.295 1.965-.466 2.973-.482.252-.008.504.001.756.008.251.018.503.028.753.063.5.06.997.148 1.483.274.973.252 1.913.625 2.774 1.132l-.055.13a22.624 22.624 0 0 0-2.832-.703c-.118-.024-.238-.036-.357-.053-.119-.015-.237-.04-.356-.052-.239-.026-.477-.057-.716-.07a14.778 14.778 0 0 0-4.283.294c-.938.209-1.87.491-2.763.892l-.058-.092z" fill="#4F5872"/>
        <g fill="#D5D5EA">
            <path d="M33.222 19.639a.318.318 0 0 0-.183-.016c-.129.03-.265.133-.38.296-.057.08-.102.165-.136.252.021 0 .043-.002.062-.005.286-.023.485-.087.608-.194.096-.086.13-.227.093-.286a.147.147 0 0 0-.064-.047m.06 2.82a10.425 10.425 0 0 1-.552-.325c-.366-.227-.77-.522-.982-.975a1.534 1.534 0 0 1-.076-.197 4.65 4.65 0 0 1-1.098-.341c-.45-.215-.767-.47-.974-.788a.407.407 0 0 1 .128-.576c.2-.119.466-.055.592.14.116.177.316.331.613.471.217.102.464.187.712.24a1.87 1.87 0 0 1 .305-.68c.236-.33.54-.545.877-.62.463-.107.952.08 1.187.452.258.416.157.991-.238 1.34-.263.23-.619.36-1.094.402l-.04.002c.139.168.344.307.535.427.207.127.348.214.468.28.21.114.29.37.18.571a.427.427 0 0 1-.543.177"/>
        </g>
        <path d="M18.998 5a4.25 4.25 0 0 1 4.247 4.257 4.249 4.249 0 0 1-1.001 2.747 10.947 10.947 0 0 0-2.06-.44c-.25-.036-.502-.046-.753-.064-.252-.007-.504-.016-.756-.008a10.705 10.705 0 0 0-2.973.482l.022-.006a4.25 4.25 0 0 1-.97-2.71c0-2.351 1.9-4.258 4.244-4.258z" fill="#FFAC00"/>
    </g>
</svg>
