<?xml version="1.0" encoding="UTF-8"?>
<svg width="51px" height="40px" viewBox="0 0 51 40" version="1.1" xmlns="http://www.w3.org/2000/svg" xmlns:xlink="http://www.w3.org/1999/xlink">
    <title>Icons / Form_Low interest rate</title>
    <defs>
        <path d="M1.21288639,0 C0.542160217,0 0,0.531298145 0,1.18593336 L0,1.18593336 L0,22.5445932 C0,23.1921128 0.328692212,23.7186672 0.73258338,23.7186672 L0.73258338,23.7186672 L19.8852724,23.7186672 C20.2903764,23.7186672 20.6190686,23.1921128 20.6190686,22.5445932 L20.6190686,22.5445932 L20.6190686,1.18593336 C20.6190686,0.531298145 20.0756955,0 19.4061823,0 L19.4061823,0 L1.21288639,0 Z" id="path-1"></path>
        <path d="M1.21288639,0 C0.542160217,0 0,0.531298145 0,1.18593336 L0,1.18593336 C0,1.5606883 0.181932959,1.91409644 0.488793216,2.13823785 L0.488793216,2.13823785 L18.0489624,14.8917652 C18.4771113,15.2036657 19.0665741,15.2036657 19.494723,14.8917652 L19.494723,14.8917652 L37.0536792,2.13823785 C37.5909879,1.74806577 37.7037864,1.00448556 37.3047467,0.477931144 L37.3047467,0.477931144 C37.0755112,0.177890004 36.7140711,0 36.330799,0 L36.330799,0 L1.21288639,0 Z" id="path-3"></path>
    </defs>
    <g id="Encash_3.0" stroke="none" stroke-width="1" fill="none" fill-rule="evenodd">
        <g id="low-interesy-copy" transform="translate(1.000000, 1.000000)">
            <g>
                <g id="Group-19">
                    <g id="Group-5" transform="translate(8.462308, 0.000000)">
                        <mask id="mask-2" fill="white">
                            <use xlink:href="#path-1"></use>
                        </mask>
                        <g id="Clip-2"></g>
                        <polygon id="Fill-1" fill="#D5D5EA" mask="url(#mask-2)" points="-1.21288639 24.9046006 21.831955 24.9046006 21.831955 -1.18593336 -1.21288639 -1.18593336"></polygon>
                        <polygon id="Stroke-3" stroke="#D5D5EA" mask="url(#mask-2)" points="-1.21288639 24.9046006 21.831955 24.9046006 21.831955 -1.18593336 -1.21288639 -1.18593336"></polygon>
                        <polygon id="Stroke-4" stroke="#D5D5EA" mask="url(#mask-2)" points="0 23.7186672 20.6190686 23.7186672 20.6190686 0 0 0"></polygon>
                    </g>
                    <path d="M9.19513431,23.7186672 C8.79003025,23.7186672 8.46255093,23.1932987 8.46255093,22.5445932 L8.46255093,1.18593336 C8.46255093,0.531298145 9.00471114,0 9.67543732,0 L27.8687332,0 C28.5382465,0 29.0816196,0.531298145 29.0816196,1.18593336 L29.0816196,22.5445932 C29.0816196,23.1932987 28.7529274,23.7186672 28.3478233,23.7186672 L9.19513431,23.7186672 Z" id="Stroke-6" stroke="#D5D5EA"></path>
                    <g id="Group-11" transform="translate(0.000000, 22.532734)">
                        <mask id="mask-4" fill="white">
                            <use xlink:href="#path-3"></use>
                        </mask>
                        <g id="Clip-9"></g>
                        <polygon id="Fill-8" fill="#D5D5EA" mask="url(#mask-4)" points="-1.21288639 16.389599 38.7844681 16.389599 38.7844681 -1.18593336 -1.21288639 -1.18593336"></polygon>
                        <polygon id="Stroke-10" stroke="#D5D5EA" stroke-width="3" mask="url(#mask-4)" points="-1.21288639 16.389599 38.7844681 16.389599 38.7844681 -1.18593336 -1.21288639 -1.18593336"></polygon>
                    </g>
                    <g id="Group-18" transform="translate(0.000243, 0.000000)">
                        <path d="M19.494723,37.424499 L37.0536792,24.6709717 C37.5909879,24.2796137 37.7037864,23.5372194 37.3035338,23.0118509 C37.0755112,22.7106238 36.7140711,22.5327338 36.330799,22.5327338 L1.21288639,22.5327338 C0.542160217,22.5327338 0,23.064032 0,23.7186672 C0,24.0934221 0.180720072,24.4468303 0.488793216,24.6709717 L18.0477495,37.424499 C18.4771113,37.7363995 19.0653612,37.7363995 19.494723,37.424499 Z" id="Stroke-12" stroke="#D5D5EA"></path>
                        <path d="M18.3717115,0 L18.899317,37.6581279 C18.899317,37.6581279 18.6094372,38.1253857 20.9539466,36.3642746 C23.0692204,34.7763099 37.0538005,24.6709717 37.0538005,24.6709717 C37.0538005,24.6709717 38.7845894,23.526546 37.0538005,22.5327338 L29.0814983,22.5445932 L29.0814983,1.18593336 C29.0814983,1.18593336 29.0463246,0 27.8686119,0 L18.3717115,0 Z" id="Fill-14" stroke="#F2F2FD" fill="#F2F2FD"></path>
                    </g>
                </g>
                <path d="M15.6060718,12.7773823 C15.5269506,12.9013389 15.4517762,13.0266296 15.3805503,13.1532535 C15.3261614,13.2499447 15.2857863,13.3291715 15.2592196,13.3916811 L15.2376434,13.4476606 L15.3309891,13.5835296 L17.3075516,13.5835296 C17.4191245,13.5835296 17.5671858,13.6162973 17.7498378,13.6829406 C17.9367015,13.7511205 18.1199427,13.8383181 18.2996065,13.9445981 C18.4766832,14.0493477 18.6268655,14.1672594 18.7504372,14.2982454 L18.8121845,14.3705514 C18.8485456,14.4181983 18.8753547,14.4647216 18.8929464,14.5100651 L18.902,14.539 L15.9950516,14.5397796 C15.8359573,14.718391 15.7372583,14.8594496 15.6559653,14.9863473 L15.3255629,15.5335895 L15.2409254,15.6900723 L15.3309891,15.8335296 L19.102,15.833 L19.1142381,15.7241955 C19.0840697,16.0459918 19.0129135,16.3193817 18.9015065,16.5446714 C18.790152,16.7698549 18.6486414,16.9556644 18.4768474,17.1029164 C18.3032309,17.2517306 18.1073322,17.3682779 17.8886991,17.4527498 C17.6663007,17.5386764 17.4323759,17.6006349 17.1868005,17.6386105 C16.9392897,17.6768853 16.6865857,17.6960296 16.4286453,17.6960296 C16.2546657,17.6960296 16.0847519,17.6925854 15.9189051,17.685699 L15.6721733,17.6727298 L15.5669266,17.7725921 L15.5669266,18.8038421 L19.3837572,23.9340954 L20.9481766,23.9741546 L21.0481766,23.8741546 L21.0481766,23.6788421 L17.4895794,18.733515 L17.458,18.685 L17.3036865,18.7078357 C17.7060495,18.6601874 18.0979209,18.5741346 18.4792046,18.4496879 C18.8643926,18.3239668 19.2139216,18.1445151 19.5273781,17.9114321 C19.8424515,17.6771467 20.1088772,17.3824637 20.3263776,17.0280187 L20.4293468,16.8437446 C20.5580181,16.5901429 20.65222,16.304953 20.7121223,15.9884541 L20.738,15.833 L21.8544266,15.8335296 L22.5888832,14.6907767 L22.5028641,14.5397796 L20.668,14.539 L20.6804672,14.6295767 C20.6586108,14.416477 20.6053155,14.2101285 20.5206897,14.0108485 L20.4334192,13.8172541 L20.3861461,13.7208234 L20.314,13.583 L21.8544266,13.5835296 L21.9304311,13.531302 C21.9385165,13.5247199 21.9450353,13.5185089 21.9510739,13.5116339 L21.9902343,13.4541338 L22.433093,12.7095244 L22.549338,12.4970009 L22.5923068,12.4110634 L22.5028641,12.2663421 L15.9950516,12.2663421 L15.9766777,12.2644332 L15.9542999,12.2586295 C15.9452759,12.2582564 15.9368744,12.2647852 15.9172828,12.2924572 L15.6060718,12.7773823 Z" id="₹" fill="#424A60" fill-rule="nonzero"></path>
            </g>
            <g id="Group-3" transform="translate(25.157468, 16.028571)">
                <g id="Group">
                    <ellipse id="Oval-Copy" fill="#FF9B00" cx="13.5" cy="10.6857143" rx="10.9285714" ry="10.6857143"></ellipse>
                    <ellipse id="Oval" fill="#FFB751" cx="10.9285714" cy="10.6857143" rx="10.9285714" ry="10.6857143"></ellipse>
                </g>
                <ellipse id="Oval" stroke="#FF9B00" cx="8.6043956" cy="9.09010989" rx="1.67582418" ry="2.69120879"></ellipse>
                <ellipse id="Oval-Copy" stroke="#FF9B00" cx="15.1318681" cy="13.3450549" rx="1.67582418" ry="2.69120879"></ellipse>
                <line x1="15.6758242" y1="4.3032967" x2="8.06043956" y2="17.0681319" id="Path-2" stroke="#FF9B00"></line>
            </g>
        </g>
    </g>
</svg>