<svg width="42" height="41" viewBox="0 0 42 41" xmlns="http://www.w3.org/2000/svg" xmlns:xlink="http://www.w3.org/1999/xlink">
    <defs>
        <path id="j64ufrkuza" d="M32.76 0 0 11.84l7.337 20.018 32.76-11.84z"/>
    </defs>
    <g fill="none" fill-rule="evenodd">
        <path fill="#D5D5EA" d="m34.162 3.514-32.76 11.84L8.74 35.372l32.76-11.84z"/>
        <path d="M28.69 8.987 9.138 16.054A4.608 4.608 0 0 1 6.9 20.748l2.56 6.984a4.664 4.664 0 0 1 4.753 2.168l19.553-7.067a4.608 4.608 0 0 1 2.237-4.694l-2.56-6.984a4.664 4.664 0 0 1-4.753-2.168" fill="#FFF"/>
        <path d="M12.109 22.82a.788.788 0 0 1 .475-1.012.796.796 0 0 1 1.018.472.788.788 0 0 1-.475 1.012.796.796 0 0 1-1.018-.472M17.57 20.846c-.78-2.129.325-4.482 2.469-5.257 2.143-.775 4.514.323 5.294 2.451.78 2.13-.325 4.483-2.469 5.258-2.143.774-4.514-.323-5.294-2.452M29.337 16.593a.788.788 0 0 1 .475-1.011.796.796 0 0 1 1.019.471.788.788 0 0 1-.475 1.012.796.796 0 0 1-1.019-.472" fill="#FF9B00"/>
        <g transform="translate(1.403 3.514)">
            <mask id="jf3ocrw33b" fill="#fff">
                <use xlink:href="#j64ufrkuza"/>
            </mask>
            <path fill="#D5D5EA" style="mix-blend-mode:multiply" mask="url(#jf3ocrw33b)" d="M.685 31.223h34.862V9.92H.685z"/>
        </g>
        <g>
            <path fill="#D5D5EA" d="M.5 36.314h34.862V15.011H.5z"/>
            <path d="M28.335 18.296H7.527a4.636 4.636 0 0 1-3.72 3.65v7.433a4.636 4.636 0 0 1 3.72 3.651h20.808a4.636 4.636 0 0 1 3.72-3.651v-7.432a4.636 4.636 0 0 1-3.72-3.651" fill="#FFF"/>
            <path d="M13.8 25.663c0-2.265 1.85-4.102 4.131-4.102s4.13 1.837 4.13 4.102c0 2.265-1.849 4.101-4.13 4.101-2.281 0-4.13-1.836-4.13-4.101M26.323 25.663c0-.436.355-.79.794-.79.44 0 .795.354.795.79 0 .436-.356.79-.795.79a.792.792 0 0 1-.794-.79M7.989 25.663c0-.436.356-.79.795-.79.438 0 .794.354.794.79 0 .436-.356.79-.794.79a.792.792 0 0 1-.795-.79" fill="#FFB751"/>
        </g>
    </g>
</svg>
