<svg width="18" height="24" viewBox="0 0 18 24" xmlns="http://www.w3.org/2000/svg" xmlns:xlink="http://www.w3.org/1999/xlink">
    <defs>
        <path id="weygy9hp6a" d="M0 24h18V0H0z"/>
    </defs>
    <g fill="none" fill-rule="evenodd">
        <path d="M9.395.019A4.467 4.467 0 0 0 9 0C6.491 0 4.458 2.11 4.458 4.712v2.664h.79V4.712C5.248 2.248 7.07.226 9.395.02" fill="#424A60"/>
        <path d="M9.395.019c-2.324.207-4.147 2.23-4.147 4.693v2.664h8.294V4.712c0-2.464-1.823-4.486-4.147-4.693" fill="#000"/>
        <path d="M9.395.019c-2.324.207-4.147 2.23-4.147 4.693v2.664h8.294V4.712c0-2.464-1.823-4.486-4.147-4.693" fill="#4F5872"/>
        <mask id="yneoi0xumb" fill="#fff">
            <use xlink:href="#weygy9hp6a"/>
        </mask>
        <path fill="#F2F2FD" mask="url(#yneoi0xumb)" d="M6.997 16.156h4.006v-5.678H6.997z"/>
        <path fill="#D5D5EA" mask="url(#yneoi0xumb)" d="M6.997 16.156H7.9v-5.678h-.903zM5.586 6.141a1.103 1.103 0 0 0-.338-.053c-.686 0-1.242.629-1.242 1.405s.556 1.405 1.242 1.405c.117 0 .23-.02.338-.054V6.141zM12.752 6.088a1.1 1.1 0 0 0-.338.053v2.703c.108.035.22.054.338.054.686 0 1.242-.63 1.242-1.405 0-.776-.556-1.405-1.242-1.405"/>
        <path d="M6.376 8.844V3.805h-.79v5.039c.003 1.937 1.518 3.507 3.386 3.507h.056c.124 0 .246-.007.367-.02-1.696-.19-3.016-1.678-3.019-3.487" fill="#D5D5EA" mask="url(#yneoi0xumb)"/>
        <path d="M12.414 8.844V3.805H6.376v5.039c.003 1.809 1.323 3.297 3.019 3.487 1.696-.19 3.016-1.678 3.019-3.487" fill="#F2F2FD" mask="url(#yneoi0xumb)"/>
        <path d="M.96 23.384v-5.035c0-1.3.622-2.482 1.608-3.145l-.322.12C.9 15.822 0 17.146 0 18.63v4.784c0 .323.252.585.564.585h.96c-.312 0-.565-.276-.565-.616" fill="#D5D5EA" mask="url(#yneoi0xumb)"/>
        <path d="m15.754 15.323-3.092-1.146-1.36 2.824a.388.388 0 0 1-.594.142L9 15.791l-1.708 1.352a.388.388 0 0 1-.593-.142l-1.361-2.824-2.77 1.027C1.582 15.868.959 17.05.959 18.35v5.035c0 .34.253.616.565.616h15.912a.575.575 0 0 0 .564-.585V18.63c0-1.484-.899-2.808-2.246-3.308" fill="#F2F2FD" mask="url(#yneoi0xumb)"/>
        <path d="M3.3 19.083a.316.316 0 0 0-.31.322V24h.621v-4.595a.316.316 0 0 0-.31-.322M14.7 19.083a.316.316 0 0 0-.311.322V24h.62v-4.595a.316.316 0 0 0-.31-.322" fill="#D5D5EA" mask="url(#yneoi0xumb)"/>
        <path fill="#F5B750" mask="url(#yneoi0xumb)" d="m7.025 15.805 1.185 2.107H9v-2.107z"/>
        <path fill="#F19A38" mask="url(#yneoi0xumb)" d="M10.975 15.805H9v2.107h.79z"/>
        <path d="M7.292 17.143 9 15.791l-1.89-2.269-1.772.655 1.36 2.824c.111.23.397.298.594.142M10.708 17.143 9 15.791l1.89-2.269 1.772.655-1.36 2.824a.388.388 0 0 1-.594.142M8.21 17.912l-.166 1.051.9-1.05zM10.19 20.446l-2.915 3.401L7.25 24h1.713l1.508-1.76zM9.824 18.126l-2.019 2.356-.29 1.846 2.51-2.93zM10.637 23.287l-.611.713h.723z" fill="#4F5872" mask="url(#yneoi0xumb)"/>
        <path fill="#F5B750" mask="url(#yneoi0xumb)" d="M9.79 17.912h-.845l-.9 1.051-.24 1.52 2.019-2.357zM10.024 19.399l-2.51 2.93-.239 1.518 2.914-3.4zM10.472 22.24 8.964 24h1.062l.611-.713z"/>
    </g>
</svg>
