<svg width="18" height="21" viewBox="0 0 18 21" xmlns="http://www.w3.org/2000/svg">
    <g fill="none" fill-rule="evenodd">
        <path fill="#F2F2FD" d="m16 10.642-4.75 4.596L18 21V8.707zM0 8.707V21l6.75-5.762z"/>
        <path fill="#D5D5EA" d="M6.75 15.238 0 21h9v-3.585zM9 17.415V21h9l-6.75-5.762z"/>
        <path fill="#00B1F2" d="M2 6.773 0 8.707h2zM18 8.707l-2-1.934v1.934zM9 0 5.81 3.086l6.371-.008z"/>
        <path fill="#8A8A96" d="m16 10.642 2-1.935h-2zM9 17.415l-7-6.773V8.707H0l6.75 6.53z"/>
        <path d="m2 10.642 7 6.773 2.25-2.177L16 10.642V3.073l-3.819.005-6.37.008L2 3.09v7.552zM4.5 9.22h9v1.536h-9V9.22zm0-1.537V6.146h9v1.537h-9z" fill="#424A60" fill-rule="nonzero"/>
        <path fill="#FFF" d="M4.5 6.146h9v1.537h-9zM4.5 9.22h9v1.537h-9z"/>
    </g>
</svg>
