<svg width="19" height="19" viewBox="0 0 19 19" xmlns="http://www.w3.org/2000/svg" xmlns:xlink="http://www.w3.org/1999/xlink">
    <defs>
        <path id="kt3a34j1qa" d="M0 0h11.906v12.81H0z"/>
    </defs>
    <g fill="none" fill-rule="evenodd">
        <path d="M4.142 18.374c-.965 0-1.93-.367-2.665-1.102a3.774 3.774 0 0 1 0-5.33l4.527-4.526a3.772 3.772 0 0 1 5.33 0 .68.68 0 1 1-.963.963 2.41 2.41 0 0 0-3.404 0L2.44 12.906a2.41 2.41 0 0 0 0 3.403 2.41 2.41 0 0 0 3.404 0l2.263-2.264a.68.68 0 1 1 .963.964l-2.263 2.263a3.757 3.757 0 0 1-2.665 1.102" fill="#D5D5EA"/>
        <g transform="translate(0 5.94)">
            <mask id="muiebkzmmb" fill="#fff">
                <use xlink:href="#kt3a34j1qa"/>
            </mask>
            <path d="M8.669.749c-.869 0-1.738.33-2.4.992L1.742 6.269A3.368 3.368 0 0 0 .75 8.668c0 .907.352 1.76.992 2.398 1.279 1.282 3.52 1.28 4.8 0l2.263-2.262a.306.306 0 1 0-.433-.433l-2.264 2.264a2.785 2.785 0 0 1-3.933 0 2.786 2.786 0 0 1 0-3.934l4.527-4.527a2.785 2.785 0 0 1 3.933 0 .308.308 0 0 0 .433 0 .308.308 0 0 0 0-.434A3.382 3.382 0 0 0 8.669.749m-4.527 12.06a4.112 4.112 0 0 1-2.93-1.212A4.112 4.112 0 0 1 0 8.667C0 7.56.43 6.52 1.212 5.738L5.739 1.21a4.153 4.153 0 0 1 5.86 0c.41.413.41 1.082 0 1.494a1.06 1.06 0 0 1-1.494 0c-.767-.767-2.106-.767-2.873 0L2.705 7.232a2.036 2.036 0 0 0 0 2.873c.767.766 2.107.767 2.873-.001L7.842 7.84c.41-.41 1.08-.411 1.493 0a1.06 1.06 0 0 1 .001 1.494l-2.264 2.264a4.117 4.117 0 0 1-2.93 1.212" fill="#D5D5EA" mask="url(#muiebkzmmb)"/>
        </g>
        <path d="M10.081 12.434c-.965 0-1.93-.367-2.665-1.102a.68.68 0 1 1 .963-.963 2.41 2.41 0 0 0 3.404 0l4.527-4.527a2.41 2.41 0 0 0 0-3.403 2.409 2.409 0 0 0-3.404 0l-2.263 2.263a.68.68 0 1 1-.963-.963l2.263-2.263a3.772 3.772 0 0 1 5.33 0 3.773 3.773 0 0 1 0 5.33l-4.527 4.526a3.757 3.757 0 0 1-2.665 1.102" fill="#BABADC"/>
        <path d="M7.898 10.545a.303.303 0 0 0-.216.09.3.3 0 0 0 0 .43c1.278 1.282 3.519 1.282 4.799.002l4.527-4.527a3.399 3.399 0 0 0 0-4.8 3.397 3.397 0 0 0-4.799 0L9.945 4.006a.306.306 0 0 0 0 .432.313.313 0 0 0 .432 0l2.265-2.263c1.048-1.05 2.884-1.05 3.933 0 .525.524.814 1.223.814 1.967s-.289 1.442-.814 1.967l-4.527 4.527c-1.048 1.049-2.884 1.049-3.934 0a.301.301 0 0 0-.216-.09m2.183 2.265a4.114 4.114 0 0 1-2.93-1.213 1.047 1.047 0 0 1-.309-.746c0-.283.11-.548.309-.747a1.06 1.06 0 0 1 1.494 0c.766.767 2.107.766 2.873 0l4.526-4.528a2.01 2.01 0 0 0 .595-1.435c0-.543-.211-1.054-.595-1.436-.766-.767-2.107-.766-2.872-.001l-2.264 2.264a1.082 1.082 0 0 1-1.494-.001 1.047 1.047 0 0 1-.308-.746c0-.282.109-.547.309-.747l2.263-2.264a4.153 4.153 0 0 1 5.86 0 4.15 4.15 0 0 1 0 5.86l-4.527 4.528a4.115 4.115 0 0 1-2.93 1.212" fill="#BABADC"/>
    </g>
</svg>
