<?xml version="1.0" encoding="UTF-8"?>
<svg width="60px" height="60px" viewBox="0 0 60 60" version="1.1" xmlns="http://www.w3.org/2000/svg" xmlns:xlink="http://www.w3.org/1999/xlink">
    <title>11463042981658965920</title>
    <defs>
        <linearGradient x1="12.082895%" y1="12.0822969%" x2="84.2805041%" y2="84.2805961%" id="linearGradient-1">
            <stop stop-color="#FFB751" offset="0%"></stop>
            <stop stop-color="#FF9B00" offset="100%"></stop>
        </linearGradient>
        <linearGradient x1="-2.6609375%" y1="-2.6609375%" x2="231.726562%" y2="231.726562%" id="linearGradient-2">
            <stop stop-color="#FFFFFF" offset="0%"></stop>
            <stop stop-color="#F2EDED" offset="100%"></stop>
        </linearGradient>
        <linearGradient x1="-169.326563%" y1="-169.326563%" x2="65.0609375%" y2="65.0609375%" id="linearGradient-3">
            <stop stop-color="#FFFFFF" offset="0%"></stop>
            <stop stop-color="#F2EDED" offset="100%"></stop>
        </linearGradient>
        <linearGradient x1="-0.997842671%" y1="-0.998426598%" x2="86.8972162%" y2="86.8977211%" id="linearGradient-4">
            <stop stop-color="#FFFFFF" offset="0%"></stop>
            <stop stop-color="#F2EDED" offset="100%"></stop>
        </linearGradient>
    </defs>
    <g id="Encash_3.0" stroke="none" stroke-width="1" fill="none" fill-rule="evenodd">
        <g id="Success-Change-2" transform="translate(-450.000000, -880.000000)" fill-rule="nonzero">
            <g id="Group-23-Copy-3" transform="translate(430.000000, 860.000000)">
                <g id="11463042981658965920" transform="translate(20.000000, 20.000000)">
                    <path d="M58.7116462,26.5197419 L53.9658996,20.9514043 C53.6051508,20.5295621 53.3876882,20.0040535 53.3448665,19.4506487 L52.7624322,12.1580143 C52.5618309,9.52794247 50.4717843,7.43789587 47.8417125,7.23729459 L40.549078,6.65549937 C39.9953084,6.61233383 39.4695023,6.39462772 39.0473,6.03369933 L33.4796015,1.28846399 L33.4796015,1.28846399 C31.4779967,-0.429487996 28.5221583,-0.429487996 26.5205535,1.28846399 L20.952855,6.03306028 C20.5307812,6.39425668 20.0049264,6.61211723 19.4510769,6.65524375 L12.1584425,7.23652773 C9.52826607,7.43714365 7.43804121,9.52709709 7.23708372,12.1572474 L6.65592756,19.4494984 C6.61268401,20.003252 6.39473313,20.5289745 6.03348846,20.9508931 L1.28850874,26.5197419 C-0.429502915,28.5216152 -0.429502915,31.4776834 1.28850874,33.4795567 L6.03425533,39.0478943 C6.39500411,39.4697365 6.61246673,39.9952451 6.6552885,40.5486499 L7.23772278,47.8412843 C7.43832406,50.4713561 9.52837066,52.5614027 12.1584425,52.762004 L19.4510769,53.3437992 C20.0048466,53.3869648 20.5306527,53.6046709 20.952855,53.9655993 L26.5205535,58.7109624 C28.5221583,60.4289144 31.4779967,60.4289144 33.4796015,58.7109624 L39.0473,53.9663661 C39.4693737,53.6051697 39.9952286,53.3873092 40.549078,53.3441826 L47.8417125,52.7623874 C50.4716396,52.5614714 52.5615161,50.4715949 52.7624322,47.8416677 L53.3435883,40.5494167 C53.3868319,39.9956632 53.6047828,39.4699406 53.9660274,39.0480221 L58.7110072,33.4799401 C60.429422,31.4781605 60.4296935,28.5218371 58.7116462,26.5197419 Z" id="Path" fill="url(#linearGradient-1)"></path>
                    <path d="M23.1835387,27.2730593 C20.9247223,27.2730593 19.0935898,25.4419269 19.0935898,23.1831105 C19.0935898,20.9242941 20.9247223,19.0931616 23.1835387,19.0931616 C25.442355,19.0931616 27.2734875,20.9242941 27.2734875,23.1831105 C27.2710221,25.4409049 25.441333,27.2705939 23.1835387,27.2730593 Z M23.1835387,21.8197516 C22.6320998,21.8196999 22.1349305,22.1518388 21.9238682,22.6612871 C21.7128058,23.1707353 21.8294175,23.7571612 22.2193254,24.1471056 C22.6092332,24.53705 23.1956482,24.6537166 23.7051162,24.4427021 C24.2145842,24.2316875 24.5467697,23.7345493 24.5467697,23.1831105 C24.5459246,22.4305484 23.9361007,21.8206672 23.1835387,21.8197516 L23.1835387,21.8197516 Z" id="Shape" fill="url(#linearGradient-2)"></path>
                    <path d="M36.8166163,40.906137 C34.5577999,40.906137 32.7266674,39.0750045 32.7266674,36.8161881 C32.7266674,34.5573717 34.5577999,32.7262393 36.8166163,32.7262393 C39.0754327,32.7262393 40.9065651,34.5573717 40.9065651,36.8161881 C40.9040997,39.0739825 39.0744107,40.9036715 36.8166163,40.906137 Z M36.8166163,35.452957 C36.2651775,35.452957 35.7680393,35.7851426 35.5570247,36.2946106 C35.3460101,36.8040786 35.4626768,37.3904936 35.8526212,37.7804014 C36.2425656,38.1703093 36.8289915,38.2869209 37.3384397,38.0758586 C37.8478879,37.8647963 38.1800269,37.3676269 38.1799752,36.8161881 C38.1791298,36.0635969 37.5692076,35.4537318 36.8166163,35.452957 L36.8166163,35.452957 Z" id="Shape" fill="url(#linearGradient-3)"></path>
                    <path d="M20.4568209,40.9061383 C19.9055293,40.9061383 19.4085998,40.5737908 19.1976535,40.0644539 C18.9867073,39.555117 19.1032651,38.9688663 19.4929989,38.5789561 L38.5793842,19.4925707 C38.9237475,19.1482074 39.4256679,19.0137182 39.8960769,19.1397639 C40.3664859,19.2658096 40.7339171,19.6332409 40.8599628,20.1036499 C40.9860085,20.5740588 40.8515194,21.0759793 40.5071561,21.4203425 L21.4207707,40.5067279 C21.16544,40.7628843 20.818497,40.9066388 20.4568209,40.9061383 L20.4568209,40.9061383 Z" id="Path" fill="url(#linearGradient-4)"></path>
                </g>
            </g>
        </g>
    </g>
</svg>