<svg width="36" height="35" viewBox="0 0 36 35" xmlns="http://www.w3.org/2000/svg" xmlns:xlink="http://www.w3.org/1999/xlink">
    <defs>
        <path id="1zbwx52pqa" d="M0 0h21v2.403H0z"/>
        <path id="wopubg7hxc" d="M0 0h21v2.403H0z"/>
    </defs>
    <g fill="none" fill-rule="evenodd">
        <path d="M22.48 18.28c-.595-.338-.58-1.198.017-1.533 2.18-1.22 3.63-3.298 3.776-5.65l.54-8.694H9.253l.54 8.694c.146 2.334 1.574 4.398 3.727 5.623.595.338.58 1.199-.017 1.533-2.18 1.22-3.63 3.298-3.776 5.65l-.54 8.694h17.56l-.54-8.694c-.146-2.334-1.574-4.398-3.727-5.622" fill="#D5D5EA"/>
        <path d="m11.695 7.728.695 4.152a5.542 5.542 0 0 0 3.708 4.346l.297.099a5.514 5.514 0 0 0 3.63-.05 5.543 5.543 0 0 0 3.568-4.296l.712-4.251h-12.61z" fill="#FFB751"/>
        <g transform="translate(7.5)">
            <mask id="kr3ov6x75b" fill="#fff">
                <use xlink:href="#1zbwx52pqa"/>
            </mask>
            <path d="M19.802 2.403H1.198A1.2 1.2 0 0 1 0 1.202 1.2 1.2 0 0 1 1.198 0h18.604A1.2 1.2 0 0 1 21 1.202a1.2 1.2 0 0 1-1.198 1.201" fill="#424A60" mask="url(#kr3ov6x75b)"/>
        </g>
        <g transform="translate(7.5 32.596)">
            <mask id="e8aigzr7gd" fill="#fff">
                <use xlink:href="#wopubg7hxc"/>
            </mask>
            <path d="M1.198 0h18.604A1.2 1.2 0 0 1 21 1.202a1.2 1.2 0 0 1-1.198 1.202H1.198A1.2 1.2 0 0 1 0 1.202 1.2 1.2 0 0 1 1.198 0" fill="#424A60" mask="url(#e8aigzr7gd)"/>
        </g>
        <path d="M15.817 23.184a5.994 5.994 0 0 1 3.948-.053l.294.099a6.023 6.023 0 0 1 3.878 4.047l.877 3.04H11.186l.905-3.138a6.024 6.024 0 0 1 3.726-3.995M18 19.487a.44.44 0 0 1-.439-.44v-1.14a.44.44 0 1 1 .878 0v1.14a.44.44 0 0 1-.439.44M18 22.011a.44.44 0 0 1-.439-.44v-1.14a.44.44 0 1 1 .878 0v1.14a.44.44 0 0 1-.439.44" fill="#FFB751"/>
        <path d="M14.98 18.28c-.595-.338-.58-1.198.017-1.533 2.18-1.22 3.63-3.298 3.776-5.65l.54-8.694h-3.186l-.54 8.694c-.146 2.352-1.596 4.43-3.777 5.65-.597.335-.612 1.195-.017 1.534 2.153 1.224 3.582 3.288 3.727 5.622l.54 8.694h3.186l-.54-8.694c-.145-2.334-1.573-4.398-3.726-5.622" fill="#D5D5EA" style="mix-blend-mode:multiply" transform="translate(7.5)"/>
    </g>
</svg>
